<?xml
version="1.0" encoding="utf-8"?>
<!-- Generator: Adobe Illustrator 25.2.3, SVG Export Plug-In . SVG Version: 6.00 Build 0)  -->
<svg version="1.1" id="Layer_1" xmlns="http://www.w3.org/2000/svg" xmlns:xlink="http://www.w3.org/1999/xlink" x="0px" y="0px" viewBox="0 0 24 24" style="enable-background:new 0 0 24 24;" xml:space="preserve">
    <style type="text/css">
        .st0 {
            fill: #ED9155;
        }
        .st1 {
            fill: #FFE5BF;
        }
    </style>
    <g>
        <path d="M0.1,2.2C0.1,1,1,0,2.2,0h19.6C23,0,24,1,24,2.2v19.6c0,1.2-1,2.2-2.2,2.2H2.2c-1.2,0-2.2-1-2.2-2.2V2.2z"/>
        <path class="st1" d="M19,19h-4.3l-0.9-2.2l-0.6,1.5l-1.3-3.5l-1.3,3.5l-0.6-1.5L9.3,19H4.8L12,6.7L19,19z"/>
        <path class="st0" d="M16.8,7.9c0.9,0,1.6-0.7,1.6-1.6s-0.7-1.6-1.6-1.6c-0.9,0-1.6,0.7-1.6,1.6S15.9,7.9,16.8,7.9z"/>
    </g>
</svg>
