<?xml version="1.0" encoding="iso-8859-1"?>
<!-- Generator: Adobe Illustrator 19.0.0, SVG Export Plug-In . SVG Version: 6.00 Build 0)  -->
<svg xmlns="http://www.w3.org/2000/svg" xmlns:xlink="http://www.w3.org/1999/xlink" version="1.1" id="Capa_1" x="0px" y="0px" viewBox="0 0 60 60" style="enable-background:new 0 0 60 60;" xml:space="preserve" width="512px" height="512px">
<g>
	<path d="M50.975,21.194C50.448,12.194,43.029,5,34.084,5c-5.43,0-10.688,2.663-13.946,7.008c-0.075-0.039-0.155-0.066-0.231-0.103   c-0.196-0.095-0.394-0.185-0.597-0.266c-0.118-0.047-0.238-0.089-0.358-0.131c-0.197-0.069-0.397-0.13-0.6-0.185   c-0.12-0.032-0.239-0.065-0.36-0.093c-0.22-0.05-0.444-0.088-0.67-0.121c-0.105-0.016-0.209-0.036-0.315-0.048   C16.676,11.023,16.341,11,16,11c-4.962,0-9,4.037-9,9c0,0.129,0.008,0.255,0.016,0.381C2.857,22.648,0,27.399,0,32.154   C0,39.237,5.762,45,12.845,45H18c0.552,0,1-0.447,1-1s-0.448-1-1-1h-5.155C6.865,43,2,38.135,2,32.154   C2,28,4.705,23.688,8.432,21.901L9,21.63V21c0-0.123,0.008-0.249,0.015-0.375l0.009-0.173L9.012,20.25C9.006,20.167,9,20.084,9,20   c0-3.859,3.14-7,7-7c0.309,0,0.614,0.027,0.917,0.067c0.078,0.01,0.156,0.023,0.234,0.036c0.267,0.044,0.53,0.102,0.789,0.176   c0.035,0.01,0.071,0.017,0.106,0.027c0.285,0.087,0.563,0.198,0.835,0.321c0.07,0.032,0.139,0.066,0.208,0.1   c0.241,0.119,0.477,0.25,0.705,0.398C21.72,15.374,23,17.539,23,20c0,0.553,0.448,1,1,1s1-0.447,1-1c0-2.754-1.246-5.219-3.2-6.871   C24.666,9.379,29.388,7,34.084,7c7.744,0,14.178,6.135,14.848,13.887c-1.022-0.072-2.553-0.109-4.083,0.124   c-0.546,0.083-0.921,0.593-0.838,1.139c0.075,0.495,0.501,0.85,0.987,0.85c0.05,0,0.101-0.004,0.152-0.012   c2.224-0.336,4.543-0.021,4.684-0.002C54.49,23.872,58,28.161,58,32.972C58,38.501,53.501,43,47.972,43H44c-0.552,0-1,0.447-1,1   s0.448,1,1,1h3.972C54.604,45,60,39.604,60,32.972C60,27.483,56.173,22.56,50.975,21.194z" fill="#4d7cfe"/>
	<path d="M41,43c-0.552,0-1,0.447-1,1c0,4.963-4.038,9-9,9s-9-4.037-9-9s4.038-9,9-9c3,0,5.677,1.506,7.311,4H32   c-0.552,0-1,0.447-1,1s0.448,1,1,1h8c0.002,0,0.003-0.001,0.005-0.001c0.07,0,0.14-0.027,0.21-0.042   c0.06-0.014,0.125-0.015,0.181-0.039c0.002-0.001,0.004,0,0.005-0.001c0.034-0.015,0.056-0.043,0.087-0.061   c0.081-0.046,0.162-0.093,0.227-0.159c0.044-0.046,0.07-0.103,0.104-0.155c0.036-0.055,0.08-0.104,0.105-0.166   c0.034-0.084,0.043-0.175,0.054-0.265C40.982,40.072,41,40.039,41,40v-0.011v-0.002V32c0-0.553-0.448-1-1-1s-1,0.447-1,1v4.6   c-2.014-2.272-4.864-3.6-8-3.6c-6.065,0-11,4.935-11,11s4.935,11,11,11s11-4.935,11-11C42,43.447,41.552,43,41,43z" fill="#4d7cfe"/>
</g>
<g>
</g>
<g>
</g>
<g>
</g>
<g>
</g>
<g>
</g>
<g>
</g>
<g>
</g>
<g>
</g>
<g>
</g>
<g>
</g>
<g>
</g>
<g>
</g>
<g>
</g>
<g>
</g>
<g>
</g>
</svg>
