<svg width="19" height="19" viewBox="0 0 19 19" fill="none" xmlns="http://www.w3.org/2000/svg">
<path d="M9.49998 1.58331C7.11577 1.58331 4.99043 2.65655 3.53929 4.33095L1.58331 2.37498V7.12498H6.33331L4.65257 5.44423C5.81481 4.05691 7.55217 3.16665 9.49998 3.16665C12.992 3.16665 15.8333 6.00794 15.8333 9.49998C15.8333 12.992 12.992 15.8333 9.49998 15.8333C6.00794 15.8333 3.16665 12.992 3.16665 9.49998H1.58331C1.58331 13.8652 5.13473 17.4166 9.49998 17.4166C13.8652 17.4166 17.4166 13.8652 17.4166 9.49998C17.4166 5.13473 13.8652 1.58331 9.49998 1.58331ZM8.70831 4.74998V9.82778L11.3152 12.4347L12.4347 11.3152L10.2916 9.17218V4.74998H8.70831Z" fill="white" fill-opacity="0.95"/>
</svg>
