<?xml version="1.0" ?><svg id="Layer_1" style="enable-background:new 0 0 24 24; stroke: #9B9B9B" version="1.1" viewBox="0 0 24 24" xml:space="preserve" xmlns="http://www.w3.org/2000/svg" xmlns:xlink="http://www.w3.org/1999/xlink"><path  d="M21.146,8.576l-7.55-6.135c-0.925-0.751-2.267-0.751-3.192,0c0,0,0,0,0,0L2.855,8.575C2.59,8.79,2.439,9.108,2.439,9.448  v11.543c0,0.62,0.505,1.13,1.125,1.13h5.062c0.62,0,1.125-0.51,1.125-1.13v-7.306h4.499v7.306c0,0.62,0.505,1.13,1.125,1.13h5.062  c0.62,0,1.125-0.51,1.125-1.13V9.448C21.561,9.108,21.41,8.79,21.146,8.576z M20.436,20.997h-5.062V13.68  c0-0.62-0.505-1.119-1.125-1.119H9.75c-0.62,0-1.125,0.499-1.125,1.119v7.317H3.564V9.448l7.55-6.134  c0.513-0.418,1.26-0.417,1.773,0l7.55,6.134V20.997z"/></svg>