<svg width="27" height="32" viewBox="0 0 27 32" fill="none" xmlns="http://www.w3.org/2000/svg">
<path d="M2.87354 0C1.29309 0 0 1.29309 0 2.87354V25.8619C0 27.4423 1.29309 28.7354 2.87354 28.7354H14.1264C13.3678 27.7253 13.1523 26.4061 13.6465 25.2136C14.2068 23.8616 15.5148 22.9883 16.9775 22.9883H17.2412V21.5515C17.2412 19.1708 19.1708 17.2412 21.5515 17.2412H22.9883V9.81044C22.9883 9.04895 22.6852 8.31755 22.1465 7.77876L15.2096 0.841857C14.6708 0.303069 13.9394 0 13.1779 0H2.87354ZM12.9309 2.15515L20.8332 10.0574H12.9309V2.15515ZM21.5993 20.0951C21.2187 20.1011 20.856 20.2578 20.5909 20.5308C20.3257 20.8039 20.1797 21.171 20.1849 21.5515V25.8619H16.9746C16.3238 25.8619 15.9971 26.6494 16.4583 27.1106L20.488 31.1403C21.1144 31.7667 22.129 31.7667 22.7554 31.1403L26.7851 27.1106C27.2449 26.6494 26.9182 25.8619 26.2659 25.8619H23.0585V21.5515C23.0611 21.3593 23.0251 21.1685 22.9527 20.9904C22.8803 20.8124 22.7728 20.6506 22.6368 20.5148C22.5007 20.379 22.3388 20.2719 22.1605 20.1998C21.9823 20.1277 21.7915 20.0921 21.5993 20.0951Z" fill="white"/>
</svg>
