<svg width="23" height="23" viewBox="0 0 23 23" fill="none" xmlns="http://www.w3.org/2000/svg">
<path d="M16.8033 6.1967C14.1055 3.49891 9.84432 3.29226 6.90335 5.57983C6.81396 5.64597 6.73871 5.72933 6.68204 5.825C6.62536 5.92067 6.58841 6.02671 6.57334 6.13689C6.55828 6.24706 6.56542 6.35913 6.59434 6.4665C6.62325 6.57387 6.67336 6.67437 6.74172 6.76208C6.81007 6.84979 6.89528 6.92293 6.99234 6.9772C7.08939 7.03147 7.19633 7.06576 7.30684 7.07807C7.41736 7.09038 7.52922 7.08044 7.63583 7.04886C7.74245 7.01727 7.84166 6.96466 7.92764 6.89414C10.2169 5.11349 13.5154 5.26586 15.6248 7.37521C16.8117 8.56217 17.3721 10.1241 17.3235 11.6726L15.0355 11.6726C14.8057 11.6726 14.6189 11.8594 14.6189 12.0893C14.6183 12.2042 14.6655 12.3085 14.7409 12.3839L17.3926 15.0355C17.5488 15.1918 17.7608 15.2796 17.9818 15.2796C18.2028 15.2796 18.4148 15.1918 18.5711 15.0355L21.2227 12.3839C21.2981 12.3085 21.3441 12.2042 21.3447 12.0893C21.3447 11.8594 21.1579 11.6726 20.9281 11.6726L18.9923 11.6726C19.0391 9.69495 18.3092 7.70257 16.8033 6.1967ZM16.1876 16.1715C16.0428 16.0244 15.8486 15.9363 15.6426 15.9242C15.4366 15.912 15.2334 15.9768 15.0724 16.1059C12.7831 17.8865 9.48457 17.7341 7.37521 15.6248C6.18827 14.4379 5.63052 12.8773 5.6788 11.3274H7.96447C8.19428 11.3274 8.38109 11.1406 8.38109 10.9107C8.38168 10.7958 8.33452 10.6915 8.25909 10.6161L5.60744 7.96447C5.45116 7.80819 5.2392 7.72039 5.01819 7.72039C4.79717 7.72039 4.58521 7.80819 4.42893 7.96447L1.77728 10.6161C1.70186 10.6915 1.65588 10.7958 1.65529 10.9107C1.65529 11.1406 1.8421 11.3274 2.07191 11.3274L4.01001 11.3274C3.96354 13.3038 4.69141 15.298 6.1967 16.8033C8.89449 19.5011 13.1557 19.7077 16.0967 17.4202C16.1911 17.3486 16.2692 17.2578 16.3258 17.1537C16.3823 17.0495 16.416 16.9346 16.4246 16.8164C16.4332 16.6982 16.4165 16.5796 16.3756 16.4684C16.3348 16.3572 16.2707 16.2559 16.1876 16.1715Z" fill="#262626"/>
</svg>
