<svg width="16" height="14" viewBox="0 0 16 14" fill="none" xmlns="http://www.w3.org/2000/svg">
<path d="M1.99349 0C1.86087 3.48295e-05 1.73127 0.0396206 1.62126 0.113696C1.51126 0.187772 1.42584 0.292972 1.37594 0.415847C1.32603 0.538721 1.3139 0.673687 1.34111 0.80349C1.36831 0.933292 1.43361 1.05203 1.52865 1.14453L3.76172 3.3776C1.64126 3.65844 0 5.4776 0 7.67318C0 10.0625 1.944 12.0065 4.33333 12.0065H12.3333C12.3518 12.0065 12.3696 12.0042 12.388 12.0039L13.5286 13.1445C13.5901 13.2085 13.6637 13.2596 13.7451 13.2948C13.8265 13.33 13.9141 13.3486 14.0028 13.3495C14.0915 13.3504 14.1795 13.3336 14.2616 13.3C14.3437 13.2665 14.4183 13.2169 14.481 13.1542C14.5438 13.0915 14.5933 13.0169 14.6269 12.9348C14.6604 12.8527 14.6772 12.7647 14.6763 12.676C14.6754 12.5873 14.6568 12.4997 14.6216 12.4183C14.5864 12.3368 14.5353 12.2633 14.4714 12.2018L2.47135 0.201823C2.40923 0.13796 2.33493 0.0871967 2.25285 0.0525322C2.17078 0.0178677 2.08259 5.19368e-06 1.99349 0ZM8 1.33984C7.28267 1.33984 6.58954 1.51301 5.96354 1.81901L14.9961 10.8529C15.6161 10.1955 16 9.31251 16 8.33984C16 6.36384 14.4281 4.74711 12.4688 4.67578C11.8901 2.71245 10.0927 1.33984 8 1.33984Z" fill="black" fill-opacity="0.95"/>
</svg>
