<svg width="40" height="27" viewBox="0 0 40 27" fill="none" xmlns="http://www.w3.org/2000/svg">
<path d="M20 0C16.1817 0 12.6014 1.89651 10.4297 5.00651C4.64135 5.21984 0 9.995 0 15.8333C0 20.5883 3.0851 24.6258 7.35677 26.0775C7.85677 26.2475 8.36211 25.8813 8.45378 25.3613C9.48211 19.4747 14.6159 15 20.7975 15C26.9509 15 32.0649 19.4349 33.1283 25.2832C33.1983 26.2132 33.5989 26.2238 34.3522 25.9538C37.6622 24.5704 40 21.3067 40 17.5C40 12.56 36.0718 8.51984 31.1751 8.33984C29.7318 3.42651 25.2483 0 20 0Z" fill="#262626"/>
</svg>
