<svg width="24" height="16" viewBox="0 0 24 16" fill="none" xmlns="http://www.w3.org/2000/svg">
<path d="M12 0C11.0717 0 10.1815 0.368749 9.52513 1.02513C8.86875 1.6815 8.5 2.57174 8.5 3.5C8.5 4.42826 8.86875 5.3185 9.52513 5.97487C10.1815 6.63125 11.0717 7 12 7C12.9283 7 13.8185 6.63125 14.4749 5.97487C15.1313 5.3185 15.5 4.42826 15.5 3.5C15.5 2.57174 15.1313 1.6815 14.4749 1.02513C13.8185 0.368749 12.9283 0 12 0ZM4.5 3C3.83696 3 3.20107 3.26339 2.73223 3.73223C2.26339 4.20107 2 4.83696 2 5.5C2 5.8283 2.06466 6.15339 2.1903 6.45671C2.31594 6.76002 2.50009 7.03562 2.73223 7.26777C3.20107 7.73661 3.83696 8 4.5 8C4.8283 8 5.15339 7.93534 5.45671 7.8097C5.76002 7.68406 6.03562 7.49991 6.26777 7.26777C6.49991 7.03562 6.68406 6.76002 6.8097 6.45671C6.93534 6.15339 7 5.8283 7 5.5C7 5.1717 6.93534 4.84661 6.8097 4.54329C6.68406 4.23998 6.49991 3.96438 6.26777 3.73223C6.03562 3.50009 5.76002 3.31594 5.45671 3.1903C5.15339 3.06466 4.8283 3 4.5 3ZM19.5 3C18.837 3 18.2011 3.26339 17.7322 3.73223C17.2634 4.20107 17 4.83696 17 5.5C17 5.8283 17.0647 6.15339 17.1903 6.45671C17.3159 6.76002 17.5001 7.03562 17.7322 7.26777C18.2011 7.73661 18.837 8 19.5 8C19.8283 8 20.1534 7.93534 20.4567 7.8097C20.76 7.68406 21.0356 7.49991 21.2678 7.26777C21.4999 7.03562 21.6841 6.76002 21.8097 6.45671C21.9353 6.15339 22 5.8283 22 5.5C22 4.83696 21.7366 4.20107 21.2678 3.73223C20.7989 3.26339 20.163 3 19.5 3ZM12 9C9.664 9 5 10.173 5 12.5V15C5 15.552 5.448 16 6 16H18C18.552 16 19 15.552 19 15V12.5C19 10.173 14.336 9 12 9ZM3.89844 10.0527C2.31744 10.2967 0 11.3891 0 12.7051V15C0 15.552 0.448 16 1 16H3V12.5C3 11.539 3.34544 10.7327 3.89844 10.0527ZM20.1016 10.0527C20.6546 10.7327 21 11.539 21 12.5V16H23C23.552 16 24 15.552 24 15V12.7051C24 11.3891 21.6826 10.2967 20.1016 10.0527Z" fill="white" fill-opacity="0.95"/>
</svg>
