<svg width="65" height="64" viewBox="0 0 65 64" fill="none" xmlns="http://www.w3.org/2000/svg">
<g opacity="0.1">
<path d="M50.6 52H10C7.25 52 5 49.75 5 47V14.5H54.35C57.35 14.5 59.7 17.15 59.3 20.1L55.55 47.6C55.25 50.1 53.1 52 50.6 52Z" fill="#D8D4EA"/>
<path d="M52.5 52H10C7.25 52 5 49.75 5 47V12H17.3C18.95 12 20.55 12.85 21.45 14.25L23.5 17.3C24.45 18.7 26 19.55 27.65 19.55H45C47.75 19.55 50 21.8 50 24.55V45.05V46C50 48.25 50.9 50.4 52.5 52Z" fill="white"/>
<path d="M50.6 53.5H10C6.4 53.5 3.5 50.6 3.5 47V12C3.5 11.15 4.15 10.5 5 10.5H17.3C19.5 10.5 21.5 11.6 22.7 13.4L24.75 16.45C25.4 17.45 26.5 18 27.65 18H45C48.6 18 51.5 20.9 51.5 24.5V42C51.5 42.85 50.85 43.5 50 43.5C49.15 43.5 48.5 42.85 48.5 42V24.5C48.5 22.55 46.95 21 45 21H27.7C25.5 21 23.5 19.9 22.3 18.1L20.25 15.05C19.6 14.05 18.5 13.5 17.35 13.5H6.5V47C6.5 48.95 8.05 50.5 10 50.5H50.6C52.35 50.5 53.85 49.2 54.05 47.45L57.8 19.95C57.9 18.95 57.6 17.95 56.95 17.2C56.3 16.45 55.35 16 54.35 16C53.5 16 52.85 15.35 52.85 14.5C52.85 13.65 53.5 13 54.35 13C56.2 13 58 13.8 59.2 15.2C60.45 16.6 61 18.45 60.8 20.3L57.05 47.8C56.65 51.05 53.85 53.5 50.6 53.5Z" fill="#454B54"/>
<path d="M54.35 16H22C21.15 16 20.5 15.35 20.5 14.5C20.5 13.65 21.15 13 22 13H54.35C55.2 13 55.85 13.65 55.85 14.5C55.85 15.35 55.15 16 54.35 16Z" fill="#454B54"/>
</g>
</svg>
