<svg width="14" height="16" viewBox="0 0 14 16" fill="none" xmlns="http://www.w3.org/2000/svg">
<path d="M1.55559 0C0.696126 0 0 0.696126 0 1.55559V14.0003C0 14.8598 0.696126 15.5559 1.55559 15.5559H7.77794C8.6374 15.5559 9.33353 14.8598 9.33353 14.0003V8.55573H4.66676C4.23742 8.55573 3.88897 8.20728 3.88897 7.77794C3.88897 7.3486 4.23742 7.00015 4.66676 7.00015H9.33353V1.55559C9.33353 0.696126 8.6374 0 7.77794 0H1.55559ZM9.33353 7.00015V8.55573H10.8891V9.64495C10.8891 9.89618 11.0409 10.1227 11.2735 10.2192C11.3505 10.2511 11.4318 10.2663 11.512 10.2663C11.6737 10.2663 11.8312 10.2045 11.951 10.0855L13.818 8.21697C14.0607 7.9743 14.0607 7.58006 13.818 7.33739L11.951 5.47038C11.7729 5.29305 11.5068 5.24103 11.2735 5.3367C11.0409 5.43315 10.8891 5.6597 10.8891 5.91093V7.00015H9.33353Z" fill="black"/>
</svg>
